<svg height="512" viewBox="0 0 64 64" width="512" xmlns="http://www.w3.org/2000/svg"><path d="m41.709 27.294-1.991-2a1 1 0 0 0 -.709-.294h-1.474l-3.109-4.664a3 3 0 0 0 -2.496-1.336h-10.694a2.983 2.983 0 0 0 -2.683 1.658l-2.171 4.342h-2.382a2 2 0 0 0 -2 2v5a1 1 0 0 0 1 1h2.184a2.982 2.982 0 0 0 5.632 0h12.368a2.982 2.982 0 0 0 5.632 0h2.184a1 1 0 0 0 1-1v-4a1 1 0 0 0 -.291-.706zm-8.947-5.849 2.37 3.555h-8.132v-4h4.93a1 1 0 0 1 .832.445zm-12.42.108a.994.994 0 0 1 .894-.553h3.764v4h-6.382zm-2.342 11.447a1 1 0 1 1 1-1 1 1 0 0 1 -1 1zm18 0a1 1 0 1 1 1-1 1 1 0 0 1 -1 1zm4-2h-1.184a2.982 2.982 0 0 0 -5.632 0h-12.368a2.982 2.982 0 0 0 -5.632 0h-1.184v-4h24.594l1.406 1.413z"/><path d="m27 7a20 20 0 1 0 20 20 20.023 20.023 0 0 0 -20-20zm0 38a18 18 0 1 1 18-18 18.021 18.021 0 0 1 -18 18z"/><path d="m59.527 49.623-10.613-10.6a25.018 25.018 0 1 0 -9.9 9.9l10.611 10.605a7 7 0 0 0 9.9-9.905zm-55.527-22.623a23 23 0 1 1 23 23 23.026 23.026 0 0 1 -23-23zm43.846 13.779 1.78 1.779-7.068 7.068-1.779-1.78a25.216 25.216 0 0 0 7.067-7.067zm10.267 17.334a5.016 5.016 0 0 1 -7.075 0l-7.067-7.073 7.069-7.069 7.071 7.065a5.016 5.016 0 0 1 .002 7.077z"/><path d="m20 13h2v2h-2z"/><path d="m27 15h2v2h-2z"/><path d="m27 37h2v2h-2z"/><path d="m20 38h2v2h-2z"/><path d="m34 13h2v2h-2z"/><path d="m50 8h2v-2h2v-2h-2v-2h-2v2h-2v2h2z"/><path d="m57 27h2v-2h2v-2h-2v-2h-2v2h-2v2h2z"/><path d="m35 56h-2v2h-2v2h2v2h2v-2h2v-2h-2z"/><path d="m9 48h-2v2h-2v2h2v2h2v-2h2v-2h-2z"/></svg>